<svg id="Layer_1" data-name="Layer 1" xmlns="http://www.w3.org/2000/svg" viewBox="0 0 141.48 100"><defs><style>.cls-1{fill:#043c79;}.cls-2{fill:#009bd1;}.cls-3{fill:#48b4e3;}.cls-4{fill:#fff;}</style></defs><title>logo</title><g id="Logo"><path class="cls-1" d="M50,0A50,50,0,0,0,8.2,22.55c.78-.16,1.49.19,2.09,1.24C14.47,31.19,1,46,12.54,62.7s-1-12.16,2.89-16.08c1.45-1.44,6.11-3.53,11.26,17.05C28.53,71,30,77.17,32.17,82.23c8,5.1,24.33,12.22,48.24,7.45A50,50,0,0,0,50,0Z"/><path class="cls-2" d="M32.17,82.23c3.74,8.86,9.46,14.42,22.48,17.55A49.66,49.66,0,0,0,80.41,89.69h0C56.5,94.45,40.21,87.33,32.17,82.23Z"/><path class="cls-3" d="M32.17,82.23C30,77.17,28.53,71,26.69,63.67c-5.15-20.58-9.81-18.49-11.26-17.05-3.91,3.92,8.69,32.8-2.89,16.08s1.93-31.51-2.25-38.91c-.6-1.05-1.31-1.4-2.09-1.24A50,50,0,0,0,50,100c1.57,0,3.12-.07,4.65-.22C41.63,96.65,35.91,91.09,32.17,82.23Z"/><circle class="cls-4" cx="38.85" cy="57.94" r="7.96"/><circle class="cls-4" cx="38.85" cy="21.85" r="7.96"/><circle class="cls-4" cx="80.12" cy="39.8" r="7.96"/><polygon class="cls-4" points="40.44 59.46 37.25 56.27 55.92 37.61 80 37.61 80 42.11 57.78 42.11 40.44 59.46"/><rect class="cls-4" x="45.6" y="18.12" width="4.5" height="25.46" transform="translate(-7.8 42.87) rotate(-45)"/><path class="cls-3" d="M59.9,51.79H70.48V86.13H59.9Zm15.05,0H93.76a15.22,15.22,0,0,1,5.5.84,9.1,9.1,0,0,1,3.37,2.14,6.76,6.76,0,0,1,1.66,2.81,10.24,10.24,0,0,1,.43,2.82,6.7,6.7,0,0,1-1.15,4.13,9.54,9.54,0,0,1-3.08,2.6,10.87,10.87,0,0,1,2.24,1.06,7.66,7.66,0,0,1,1.9,1.7A8.72,8.72,0,0,1,106,72.37a10.21,10.21,0,0,1,.5,3.32,9.51,9.51,0,0,1-1,4.54,9.89,9.89,0,0,1-2.72,3.25,12,12,0,0,1-3.85,2,14.72,14.72,0,0,1-4.42.68H75ZM85.53,65.16h5.58a5.23,5.23,0,0,0,2.65-.58,2.42,2.42,0,0,0,1-2.26,1.89,1.89,0,0,0-1-1.83A5.59,5.59,0,0,0,91.11,60H85.53Zm0,12.79h6.21a8.79,8.79,0,0,0,1.56-.14,3.87,3.87,0,0,0,1.32-.51,2.63,2.63,0,0,0,.92-1,3.54,3.54,0,0,0,.33-1.64c0-2.08-1.23-3.13-3.7-3.13H85.53Zm48.93,4.67a10.12,10.12,0,0,1-4.36,3.31,14.49,14.49,0,0,1-5.41,1,16.16,16.16,0,0,1-6.83-1.39,15.68,15.68,0,0,1-5.17-3.78,16.5,16.5,0,0,1-3.27-5.6,20.73,20.73,0,0,1-1.13-6.88,20.3,20.3,0,0,1,1.57-8.39,16.5,16.5,0,0,1,4-5.67A16,16,0,0,1,119.33,52a18,18,0,0,1,5.89-1q6.6,0,10.63,3.37a15.58,15.58,0,0,1,5.2,9.47H130.9a4.85,4.85,0,0,0-1.71-3.08,5,5,0,0,0-3.29-1.2,7.11,7.11,0,0,0-3.06.58,5.63,5.63,0,0,0-2,1.49,6.52,6.52,0,0,0-1.18,2,11.21,11.21,0,0,0-.58,2.24A15.9,15.9,0,0,0,118.9,68q0,1,0,1.56a13.92,13.92,0,0,0,.32,2.75,8.53,8.53,0,0,0,1.15,2.88,7.2,7.2,0,0,0,2.36,2.29,7.39,7.39,0,0,0,3.92.93,6.85,6.85,0,0,0,1.8-.24,6.76,6.76,0,0,0,1.66-.69,4.45,4.45,0,0,0,1.3-1.18,4.23,4.23,0,0,0,.72-1.69h-4.67V67.22h14V86.13h-6.69Z"/></g></svg>