<svg id="Layer_1" data-name="Layer 1" xmlns="http://www.w3.org/2000/svg" xmlns:xlink="http://www.w3.org/1999/xlink" viewBox="0 0 50.76 51.85"><defs><style>.cls-1{fill:none;}.cls-2{fill:#fff;}.cls-3{fill:#121516;}.cls-4{clip-path:url(#clip-path);}.cls-5{fill:url(#linear-gradient);}.cls-6{clip-path:url(#clip-path-2);}.cls-7{fill:url(#linear-gradient-2);}.cls-8{clip-path:url(#clip-path-3);}.cls-9{fill:url(#linear-gradient-3);}.cls-10{clip-path:url(#clip-path-4);}.cls-11{fill:url(#linear-gradient-4);}</style><clipPath id="clip-path"><ellipse id="Mask" class="cls-1" cx="19.84" cy="10.67" rx="16.56" ry="8.1" transform="translate(-1.93 4.89) rotate(-13.4)"/></clipPath><linearGradient id="linear-gradient" x1="-114.31" y1="13.03" x2="-119.02" y2="20.99" gradientTransform="matrix(-1, 0, 0, 1, -93.11, 0)" gradientUnits="userSpaceOnUse"><stop offset="0" stop-color="#194b99"/><stop offset="0.16" stop-color="#1b549d"/><stop offset="0.43" stop-color="#216ca9"/><stop offset="0.76" stop-color="#2a94bd"/><stop offset="1" stop-color="#31b4cd"/></linearGradient><clipPath id="clip-path-2"><polygon id="Mask-2" data-name="Mask" class="cls-1" points="39.72 2.91 36.06 17.51 9.54 21.68 0.07 13.93 15.31 -1.5 39.72 2.91"/></clipPath><linearGradient id="linear-gradient-2" x1="-167.34" y1="245.81" x2="-205.63" y2="252.92" gradientTransform="translate(114.46 -177.95) scale(0.53 0.74)" xlink:href="#linear-gradient"/><clipPath id="clip-path-3"><path id="Mask-3" data-name="Mask" class="cls-1" d="M37.66,31s-1.58,6.68-12.45,8.62C14,41.61,11.1,35.2,11.1,35.2c-.26-1.34-.61-4-.9-5.24,1.64,1.36,7.73,5.44,17.42,2.1,4.51-1.55,7.45-5.12,9.25-7.26C37.25,27.67,37.66,31,37.66,31Z"/></clipPath><linearGradient id="linear-gradient-3" x1="-66.04" y1="-778.45" x2="-47.52" y2="-801.43" gradientTransform="translate(202.06 -743.78) rotate(-163.45)" gradientUnits="userSpaceOnUse"><stop offset="0" stop-color="#e72429"/><stop offset="0.23" stop-color="#e72829"/><stop offset="0.43" stop-color="#e93328"/><stop offset="0.63" stop-color="#eb4526"/><stop offset="0.82" stop-color="#ed5f24"/><stop offset="1" stop-color="#f17f21"/></linearGradient><clipPath id="clip-path-4"><polygon id="Mask-4" data-name="Mask" class="cls-1" points="18.14 43.78 7.36 35.84 9.63 29.36 34.19 17.99 40.97 25.95 39.23 36.24 18.14 43.78"/></clipPath><linearGradient id="linear-gradient-4" x1="120.97" y1="-895.02" x2="122.42" y2="-886.93" gradientTransform="matrix(0.76, -0.65, -0.65, -0.76, -643.06, -567.93)" gradientUnits="userSpaceOnUse"><stop offset="0.31" stop-color="#e72429"/><stop offset="0.5" stop-color="#eb4626"/><stop offset="0.7" stop-color="#ee6523"/><stop offset="0.88" stop-color="#f07822"/><stop offset="1" stop-color="#f17f21"/></linearGradient></defs><title>margix-logo</title><g id="Symbol"><path id="Offset_Path_4_px" data-name="Offset Path 4 px" class="cls-2" d="M50.49,30c-1.11-4.51-5.56-7.75-12.24-9a83,83,0,0,1-.4-12.12,6.09,6.09,0,0,0,.09-1.47,6.29,6.29,0,0,0-.15-1C36.85,2.45,32,0,25.19,0a33.3,33.3,0,0,0-7.67.94C7.28,3.38.56,9.4,1.88,15a6.26,6.26,0,0,0,1.58,2.86,56.76,56.76,0,0,1,4,10.5C1.81,32.54-.89,37.77.26,42.39c1.42,5.75,8.57,9.46,18.21,9.46h0a43.45,43.45,0,0,0,10.46-1.32A38.39,38.39,0,0,0,45.3,42.35C49.65,38.41,51.5,34,50.49,30Z"/><g id="Symbol-2" data-name="Symbol"><ellipse id="Disk" class="cls-3" cx="25.38" cy="36.17" rx="23.97" ry="12.9" transform="translate(-7.95 7.16) rotate(-13.91)"/><path id="Body_Hat" data-name="Body Hat" class="cls-3" d="M36,7.52l-21.33,6-11,1S8.29,20.87,11.1,35.2c0,0,2.9,6.42,14.11,4.41C36.07,37.67,37.66,31,37.66,31S35.22,17.43,36,7.52Z"/><path id="Divide_White" data-name="Divide White" class="cls-2" d="M25.38,36.88a24.62,24.62,0,0,1-14.23-1.69c.09.45.18,2.8.27,3.27,0,0,2.9,5.51,14.06,3.5C36.31,40,37.9,33.79,37.9,33.79s-.09-1.94-.23-2.8C28.54,37.13,25.38,36.88,25.38,36.88Z"/><path id="M_Negative" data-name="M Negative" class="cls-2" d="M22.78,22.69l-4.4-5.32,6-1.39Zm-2.66,2.2,3,12.78,6-1.39-3-12.78-1.61,6.71Z"/><g id="Cold_Gradient" data-name="Cold Gradient"><g class="cls-4"><g id="Cold"><polygon id="Cold1" class="cls-5" points="39.05 7.2 37.66 12.94 18.39 22.69 2.61 17.61 3.73 7.52 29.11 -1.77 39.05 7.2"/><g id="Cold2"><g class="cls-6"><ellipse id="Cold2-2" data-name="Cold2" class="cls-7" cx="15.75" cy="7.52" rx="15.88" ry="8.22" transform="translate(-1.69 6.92) rotate(-23.54)"/></g></g></g></g></g><g id="Hot_Gradient" data-name="Hot Gradient"><g class="cls-8"><g id="Hot"><polygon id="Hot1" class="cls-9" points="8.59 41.78 8.29 29.69 34.19 17.99 42.91 35.97 31.5 45.56 8.59 41.78"/><g id="Hot2"><g class="cls-10"><path id="Hot2-2" data-name="Hot2" class="cls-11" d="M37.2,23.57S33.41,41.07,8.59,38.08c.75-.9,2.07-9.3,2.07-9.3Z"/></g></g></g></g></g></g></g></svg>