<?xml version="1.0" encoding="iso-8859-1"?>
<!-- Generator: Adobe Illustrator 19.0.0, SVG Export Plug-In . SVG Version: 6.00 Build 0)  -->
<svg version="1.1" id="Capa_1" xmlns="http://www.w3.org/2000/svg" xmlns:xlink="http://www.w3.org/1999/xlink" x="0px" y="0px"
     viewBox="0 0 511.999 511.999" style="enable-background:new 0 0 511.999 511.999;" xml:space="preserve">
<g>
	<g>
		<path fill-rule="evenodd" fill="currentColor"   d="M256.001,113.5c-78.575,0-142.5,63.925-142.5,142.5s63.925,142.5,142.5,142.5s142.5-63.925,142.5-142.5
			S334.576,113.5,256.001,113.5z M256.001,383.5c-70.304,0-127.5-57.196-127.5-127.5s57.196-127.5,127.5-127.5
			s127.5,57.196,127.5,127.5S326.305,383.5,256.001,383.5z"/>
	</g>
</g>
  <g>
	<g>
		<path fill-rule="evenodd" fill="currentColor"   d="M256.001,218.5c-20.678,0-37.5,16.822-37.5,37.5s16.822,37.5,37.5,37.5s37.5-16.822,37.5-37.5
			S276.679,218.5,256.001,218.5z M256.001,278.5c-12.407,0-22.5-10.093-22.5-22.5s10.093-22.5,22.5-22.5s22.5,10.093,22.5,22.5
			S268.408,278.5,256.001,278.5z"/>
	</g>
</g>
  <g>
	<g>
		<path fill-rule="evenodd" fill="currentColor"   d="M506.873,218.885l-56.184-18.728c-4.214-14.717-10.101-28.919-17.542-42.321l26.492-52.984
			c1.444-2.887,0.878-6.375-1.405-8.657l-42.426-42.426c-2.283-2.284-5.772-2.85-8.657-1.405l-52.984,26.492
			c-13.403-7.441-27.604-13.328-42.322-17.542L293.116,5.128C292.095,2.066,289.229,0,286.001,0h-60
			c-3.228,0-6.094,2.066-7.115,5.128l-18.728,56.184c-14.717,4.214-28.919,10.101-42.322,17.542l-52.984-26.492
			c-2.887-1.444-6.375-0.878-8.657,1.405L53.769,96.194c-2.283,2.283-2.849,5.77-1.405,8.657l26.492,52.984
			c-7.441,13.402-13.328,27.604-17.542,42.321L5.129,218.885c-3.063,1.021-5.128,3.887-5.128,7.115v60
			c0,3.228,2.066,6.094,5.128,7.115l56.184,18.728c4.214,14.717,10.101,28.919,17.542,42.322l-26.492,52.984
			c-1.444,2.887-0.878,6.375,1.405,8.657l42.426,42.426c2.282,2.283,5.771,2.849,8.657,1.405l52.984-26.492
			c13.403,7.441,27.604,13.328,42.322,17.542l18.728,56.184c1.021,3.063,3.887,5.128,7.115,5.128h60
			c3.228,0,6.094-2.066,7.115-5.128l18.728-56.184c14.717-4.214,28.919-10.101,42.322-17.542l52.984,26.492
			c2.887,1.444,6.375,0.878,8.657-1.405l42.426-42.426c2.283-2.283,2.849-5.77,1.405-8.657l-26.492-52.984
			c7.441-13.403,13.328-27.604,17.542-42.322l56.184-18.728c3.063-1.021,5.128-3.887,5.128-7.115v-60
			C512,222.772,509.936,219.906,506.873,218.885z M497.001,280.594l-54.852,18.284c-2.398,0.8-4.233,2.753-4.879,5.197
			c-4.268,16.134-10.695,31.641-19.104,46.091c-1.272,2.186-1.357,4.865-0.226,7.126l25.865,51.729l-34.782,34.782l-51.729-25.865
			c-2.261-1.131-4.94-1.046-7.126,0.226c-14.45,8.409-29.957,14.837-46.091,19.104c-2.444,0.646-4.397,2.48-5.197,4.879L280.595,497
			h-49.188l-18.284-54.852c-0.8-2.398-2.753-4.233-5.197-4.879c-16.134-4.268-31.641-10.695-46.091-19.104
			c-2.187-1.272-4.865-1.356-7.126-0.226l-51.729,25.865l-34.782-34.782l25.865-51.729c1.131-2.262,1.046-4.941-0.226-7.126
			c-8.409-14.45-14.837-29.957-19.104-46.091c-0.646-2.444-2.48-4.397-4.879-5.197l-54.853-18.285v-49.188l54.852-18.284
			c2.398-0.8,4.233-2.753,4.879-5.197c4.268-16.134,10.695-31.641,19.104-46.09c1.272-2.186,1.357-4.865,0.226-7.126L68.197,102.98
			l34.782-34.782l51.729,25.865c2.262,1.132,4.94,1.047,7.126-0.226c14.45-8.409,29.957-14.837,46.091-19.104
			c2.444-0.646,4.397-2.48,5.197-4.879L231.407,15h49.188l18.284,54.852c0.8,2.398,2.753,4.233,5.197,4.879
			c16.134,4.268,31.641,10.695,46.091,19.104c2.187,1.272,4.865,1.356,7.126,0.226l51.729-25.865l34.782,34.782l-25.865,51.729
			c-1.131,2.262-1.046,4.941,0.226,7.126c8.409,14.449,14.837,29.956,19.104,46.09c0.646,2.444,2.48,4.397,4.879,5.197
			l54.853,18.286V280.594z"/>
	</g>
</g>
  <g>
	<g>
		<path fill-rule="evenodd" fill="currentColor"   d="M256.001,143.5c-62.033,0-112.5,50.467-112.5,112.5c0,24.477,7.758,47.765,22.436,67.347
			c2.484,3.314,7.185,3.988,10.5,1.503c3.315-2.485,3.988-7.186,1.503-10.5c-12.717-16.965-19.439-37.143-19.439-58.35
			c0-53.762,43.738-97.5,97.5-97.5c53.762,0,97.5,43.738,97.5,97.5c0,53.762-43.738,97.5-97.5,97.5
			c-21.207,0-41.385-6.722-58.351-19.439c-3.314-2.483-8.015-1.812-10.5,1.503c-2.484,3.314-1.811,8.015,1.503,10.5
			c19.583,14.678,42.871,22.436,67.348,22.436c62.033,0,112.5-50.467,112.5-112.5S318.034,143.5,256.001,143.5z"/>
	</g>
</g>
  <g>
</g>
  <g>
</g>
  <g>
</g>
  <g>
</g>
  <g>
</g>
  <g>
</g>
  <g>
</g>
  <g>
</g>
  <g>
</g>
  <g>
</g>
  <g>
</g>
  <g>
</g>
  <g>
</g>
  <g>
</g>
  <g>
</g>
</svg>
